# xmcd
#
# Track frame offsets:
#       150
#       23461
#       50074
#       79819
#       114330
#       158692
#       173235
#       222126
#       257234
#
# Disc length: 3641 seconds
#
# Revision: 0
# Processed by: cddbd v1.5.2PL0 Copyright (c) Steve Scherf et al.
# Submitted via: WaveLab 4.01
#
DISCID=6d0e3709
DTITLE=The Fabulous Bolt Ons - The Beenie Weenie Incident
DYEAR=2007
DGENRE=Blues/Rock
TTITLE0=The Beenie Weenie Incident
TTITLE1=Bakin Music
TTITLE2=Allen's Dream
TTITLE3=LA Song
TTITLE4=Job's Blues
TTITLE5=Shorty Shorty
TTITLE6=I Just Wanna Make Love To You
TTITLE7=Turn On Your Love Light
TTITLE8=Crystal Love
EXTD=
EXTT0=
EXTT1=
EXTT2=
EXTT3=
EXTT4=
EXTT5=
EXTT6=
EXTT7=
EXTT8=
PLAYORDER=
